<?xml version="1.0" encoding="UTF-8" standalone="no"?>
<!-- Created with Inkscape (http://www.inkscape.org/) -->

<svg
   width="150mm"
   height="75mm"
   viewBox="0 0 150 75"
   version="1.1"
   id="svg1"
   inkscape:version="1.4-beta (62f545ba5e, 2024-04-22)"
   sodipodi:docname="pims_logo_path.svg"
   xmlns:inkscape="http://www.inkscape.org/namespaces/inkscape"
   xmlns:sodipodi="http://sodipodi.sourceforge.net/DTD/sodipodi-0.dtd"
   xmlns="http://www.w3.org/2000/svg"
   xmlns:svg="http://www.w3.org/2000/svg">
  <sodipodi:namedview
     id="namedview1"
     pagecolor="#ffffff"
     bordercolor="#000000"
     borderopacity="0.25"
     inkscape:showpageshadow="2"
     inkscape:pageopacity="0.0"
     inkscape:pagecheckerboard="0"
     inkscape:deskcolor="#d1d1d1"
     inkscape:document-units="mm"
     inkscape:zoom="0.81882477"
     inkscape:cx="196.01263"
     inkscape:cy="172.80865"
     inkscape:window-width="1920"
     inkscape:window-height="1129"
     inkscape:window-x="-8"
     inkscape:window-y="-8"
     inkscape:window-maximized="1"
     inkscape:current-layer="layer1" />
  <defs
     id="defs1">
    <inkscape:path-effect
       effect="spiro"
       id="path-effect25"
       is_visible="true"
       lpeversion="1" />
    <inkscape:path-effect
       effect="spiro"
       id="path-effect23"
       is_visible="true"
       lpeversion="1" />
    <inkscape:path-effect
       effect="spiro"
       id="path-effect21"
       is_visible="true"
       lpeversion="1" />
    <inkscape:path-effect
       effect="spiro"
       id="path-effect19"
       is_visible="true"
       lpeversion="1" />
    <inkscape:path-effect
       effect="spiro"
       id="path-effect15"
       is_visible="true"
       lpeversion="1" />
    <inkscape:path-effect
       effect="spiro"
       id="path-effect12"
       is_visible="true"
       lpeversion="1" />
    <inkscape:path-effect
       effect="spiro"
       id="path-effect9"
       is_visible="true"
       lpeversion="1" />
    <inkscape:path-effect
       effect="spiro"
       id="path-effect5"
       is_visible="true"
       lpeversion="1" />
    <inkscape:path-effect
       effect="spiro"
       id="path-effect18"
       is_visible="true"
       lpeversion="1" />
    <inkscape:path-effect
       effect="spiro"
       id="path-effect16"
       is_visible="true"
       lpeversion="1" />
    <inkscape:path-effect
       effect="spiro"
       id="path-effect14"
       is_visible="true"
       lpeversion="1" />
    <inkscape:path-effect
       effect="spiro"
       id="path-effect10"
       is_visible="true"
       lpeversion="1" />
    <inkscape:path-effect
       effect="spiro"
       id="path-effect8"
       is_visible="true"
       lpeversion="1" />
    <inkscape:path-effect
       effect="spiro"
       id="path-effect6"
       is_visible="true"
       lpeversion="1" />
    <inkscape:path-effect
       effect="spiro"
       id="path-effect4"
       is_visible="true"
       lpeversion="1" />
    <inkscape:path-effect
       effect="spiro"
       id="path-effect2"
       is_visible="true"
       lpeversion="1" />
    <inkscape:path-effect
       effect="spiro"
       id="path-effect1"
       is_visible="true"
       lpeversion="1" />
  </defs>
  <g
     inkscape:label="Layer 1"
     inkscape:groupmode="layer"
     id="layer1">
    <path
       style="fill:none;stroke:#000000;stroke-width:1.38764;stroke-dasharray:none;stroke-opacity:1"
       d="M 63.023516,113.95191 V 133.1019"
       id="path23"
       inkscape:path-effect="#path-effect25"
       inkscape:original-d="M 63.023516,113.95191 V 133.1019"
       transform="matrix(1.015925,0,0,0.31693826,64.320548,16.877453)"
       sodipodi:nodetypes="cc" />
    <path
       style="fill:none;stroke:#000000;stroke-width:1.38764;stroke-dasharray:none;stroke-opacity:1"
       d="M 63.023516,65.076669 V 133.1019"
       id="path21"
       inkscape:path-effect="#path-effect23"
       inkscape:original-d="M 63.023516,65.076669 V 133.1019"
       transform="matrix(1.015925,0,0,0.31693826,51.395519,16.877453)"
       sodipodi:nodetypes="cc" />
    <path
       style="fill:none;stroke:#000000;stroke-width:1.38764;stroke-dasharray:none;stroke-opacity:1"
       d="M 63.023516,100.75996 V 133.1019"
       id="path19"
       inkscape:path-effect="#path-effect21"
       inkscape:original-d="M 63.023516,100.75996 V 133.1019"
       transform="matrix(1.015925,0,0,0.31693826,40.086119,16.877453)"
       sodipodi:nodetypes="cc" />
    <path
       style="fill:none;stroke:#000000;stroke-width:1.38764;stroke-dasharray:none;stroke-opacity:1"
       d="M 63.023516,59.214414 V 133.1019"
       id="path15"
       inkscape:path-effect="#path-effect19"
       inkscape:original-d="M 63.023516,59.214414 V 133.1019"
       transform="matrix(1.015925,0,0,0.31693826,12.216526,16.877453)"
       sodipodi:nodetypes="cc" />
    <path
       style="fill:none;stroke:#000000;stroke-width:1.38764;stroke-dasharray:none;stroke-opacity:1"
       d="M 63.023516,19.564291 V 133.1019"
       id="path12"
       inkscape:path-effect="#path-effect15"
       inkscape:original-d="M 63.023516,19.564291 V 133.1019"
       transform="matrix(1.015925,0,0,0.31693826,-19.771288,16.877453)"
       sodipodi:nodetypes="cc" />
    <path
       style="font-weight:bold;font-size:44.373px;font-family:'Century Gothic';-inkscape-font-specification:'Century Gothic, Bold';fill:#800080;stroke-width:10.3964"
       d="m 14.781644,6.7393317 h 6.434952 q 5.221627,0 7.518277,0.9749927 2.318316,0.9533262 3.639973,3.1199766 1.343323,2.144984 1.343323,5.156628 0,3.336642 -1.754987,5.546625 -1.73332,2.209984 -4.723298,3.076644 -1.754987,0.498329 -6.391619,0.498329 V 38.61076 h -6.066621 z m 6.066621,12.4582403 h 1.928319 q 2.274983,0 3.16331,-0.324998 0.888326,-0.324997 1.386656,-1.061659 0.519996,-0.758327 0.519996,-1.819986 0,-1.841653 -1.429989,-2.686646 -1.039992,-0.628329 -3.856638,-0.628329 h -1.711654 z"
       id="text10"
       transform="translate(-0.36954165,3.1430586)"
       aria-label="P" />
    <path
       style="font-weight:bold;font-size:44.373px;font-family:'Century Gothic';-inkscape-font-specification:'Century Gothic, Bold';fill:#666666;stroke-width:10.3964"
       d="m 47.400048,6.7393317 h 6.023288 V 38.61076 h -6.023288 z"
       id="text11"
       transform="translate(-0.36954165,3.1430586)"
       aria-label="I" />
    <path
       style="font-weight:bold;font-size:44.373px;font-family:'Century Gothic';-inkscape-font-specification:'Century Gothic, Bold';fill:#666666;stroke-width:10.3964"
       d="M 72.608508,6.7393317 H 78.54513 L 85.911742,28.969165 93.386686,6.7393317 h 5.849956 L 104.60993,38.61076 H 98.759979 L 95.336671,18.482577 88.555055,38.61076 H 83.203429 L 76.508479,18.482577 73.020171,38.61076 h -5.914955 z"
       id="text12"
       transform="translate(-0.36954165,3.1430586)"
       aria-label="M" />
    <path
       style="font-weight:bold;font-size:44.373px;font-family:'Century Gothic';-inkscape-font-specification:'Century Gothic, Bold';fill:#000080;stroke-width:10.3964"
       d="m 137.74835,11.874303 -4.48497,3.96497 q -2.36164,-3.293309 -4.80996,-3.293309 -1.19166,0 -1.94998,0.649995 -0.75833,0.628329 -0.75833,1.42999 0,0.80166 0.54166,1.516655 0.73666,0.953326 4.44163,4.094969 3.46664,2.903312 4.20331,3.66164 1.84165,1.863319 2.59998,3.574973 0.77999,1.689987 0.77999,3.704972 0,3.921637 -2.70831,6.478285 -2.70832,2.556647 -7.06328,2.556647 -3.40164,0 -5.93663,-1.66832 -2.51331,-1.668321 -4.31163,-5.243294 l 5.09163,-3.076644 q 2.29665,4.224968 5.28663,4.224968 1.55998,0 2.62164,-0.909993 1.06166,-0.909993 1.06166,-2.101651 0,-1.083325 -0.80166,-2.16665 -0.80166,-1.083325 -3.53164,-3.314975 -5.19996,-4.246635 -6.71662,-6.543285 -1.51665,-2.318316 -1.51665,-4.614965 0,-3.314975 2.51331,-5.6766244 2.53498,-2.3833155 6.23996,-2.3833155 2.38331,0 4.5283,1.1049917 2.16665,1.1049918 4.67996,4.0299702 z"
       id="text13"
       transform="translate(-0.36954165,3.1430586)"
       aria-label="S" />
    <rect
       style="fill:none;stroke:#000000;stroke-width:2;stroke-dasharray:none;stroke-opacity:1"
       id="rect1"
       width="141.47786"
       height="54.499523"
       x="4.6306119"
       y="9.7413912"
       transform="translate(-0.36954165,-4.7944418)" />
    <path
       style="fill:none;stroke:#000000;stroke-width:1.38764;stroke-dasharray:none;stroke-opacity:1"
       d="M 63.023516,105.35274 V 133.1019"
       id="path14"
       inkscape:path-effect="#path-effect16"
       inkscape:original-d="m 63.023516,105.35274 c 0,8.93617 0,18.34267 0,27.74916"
       transform="matrix(1.015925,0,0,0.31693826,-26.168851,16.877453)" />
    <path
       style="fill:none;stroke:#000000;stroke-width:1.38764;stroke-dasharray:none;stroke-opacity:1"
       d="M 63.023516,28.215227 V 133.1019"
       id="path9"
       inkscape:path-effect="#path-effect12"
       inkscape:original-d="M 63.023516,28.215227 V 133.1019"
       transform="matrix(1.015925,0,0,0.31693826,-53.586977,16.877453)"
       sodipodi:nodetypes="cc" />
    <path
       d="m 36.615403,194.63798 h 15.972886 q 12.961163,0 18.661924,2.42014 5.754541,2.36635 9.035168,7.74443 3.334407,5.32429 3.334407,12.79982 0,8.28223 -4.356242,13.76787 -4.302461,5.48564 -11.724206,7.63687 -4.356241,1.23696 -15.865324,1.23696 v 33.50541 H 36.615403 Z m 15.058613,30.92394 h 4.786488 q 5.64698,0 7.851991,-0.80671 2.205011,-0.80671 3.441968,-2.63526 1.290739,-1.88233 1.290739,-4.51758 0,-4.57137 -3.54953,-6.66882 -2.581477,-1.55964 -9.572976,-1.55964 h -4.24868 z m 47.703533,-30.92394 h 15.972891 q 13.1225,0 18.66192,2.36636 5.5932,2.31257 8.98139,7.74443 3.38818,5.43185 3.38818,12.8536 0,7.79821 -3.76465,13.06872 -3.71087,5.21674 -11.24018,7.90577 l 18.71571,35.17262 h -16.45692 l -17.80143,-33.50541 h -1.3983 v 33.50541 H 99.377549 Z m 15.058611,30.92394 h 4.73271 q 7.20662,0 9.89566,-1.88233 2.74282,-1.88232 2.74282,-6.23857 0,-2.58147 -1.34452,-4.4638 -1.34452,-1.93611 -3.60331,-2.74282 -2.25879,-0.86049 -8.28224,-0.86049 h -4.14112 z m 85.18873,-32.91383 q 16.7796,0 28.82649,12.15446 12.10067,12.15445 12.10067,29.6332 0,17.3174 -11.93933,29.31051 -11.88555,11.99311 -28.88027,11.99311 -17.80143,0 -29.57942,-12.31579 -11.77798,-12.3158 -11.77798,-29.25674 0,-11.34774 5.48564,-20.86693 5.48563,-9.5192 15.05861,-15.05862 9.62675,-5.5932 20.70559,-5.5932 z m -0.16134,14.73593 q -10.97128,0 -18.4468,7.63687 -7.47553,7.63687 -7.47553,19.41486 0,13.1225 9.41164,20.75937 7.31418,5.96966 16.77959,5.96966 10.70237,0 18.23168,-7.74443 7.52931,-7.74443 7.52931,-19.09217 0,-11.29396 -7.58309,-19.09217 -7.58309,-7.85199 -18.4468,-7.85199 z m 47.4884,-12.74604 h 43.72376 v 14.84349 h -14.41324 v 64.26801 h -15.27374 v -64.26801 h -14.03678 z m 54.10344,0 h 43.18595 v 14.73593 h -28.2349 v 14.30568 h 28.2349 v 14.46703 h -28.2349 v 20.81315 h 28.2349 v 14.78971 h -43.18595 z m 94.60037,-1.98989 q 16.7796,0 28.82649,12.15446 12.10067,12.15445 12.10067,29.6332 0,17.3174 -11.93933,29.31051 -11.88555,11.99311 -28.88027,11.99311 -17.80143,0 -29.57942,-12.31579 -11.77798,-12.3158 -11.77798,-29.25674 0,-11.34774 5.48563,-20.86693 5.48564,-9.5192 15.05862,-15.05862 9.62675,-5.5932 20.70559,-5.5932 z m -0.16134,14.73593 q -10.97128,0 -18.4468,7.63687 -7.47553,7.63687 -7.47553,19.41486 0,13.1225 9.41163,20.75937 7.31419,5.96966 16.7796,5.96966 10.70237,0 18.23168,-7.74443 7.52931,-7.74443 7.52931,-19.09217 0,-11.29396 -7.58309,-19.09217 -7.58309,-7.85199 -18.4468,-7.85199 z m 62.92348,-12.74604 h 14.73593 l 18.28546,55.17906 18.55436,-55.17906 h 14.5208 l 13.33763,79.1115 h -14.5208 l -8.49736,-49.96233 -16.83338,49.96233 h -13.28385 l -16.61825,-49.96233 -8.65871,49.96233 h -14.68214 z m 90.40547,0 h 14.95105 v 79.1115 h -14.95105 z m 104.60354,13.92922 -10.54102,10.057 q -10.75616,-11.34774 -24.20135,-11.34774 -11.34774,0 -19.14595,7.74443 -7.74443,7.74443 -7.74443,19.09217 0,7.90577 3.44197,14.03678 3.44197,6.13101 9.73432,9.62676 6.29235,3.49574 13.983,3.49574 6.56125,0 11.99311,-2.42013 5.43185,-2.47391 11.93933,-8.92761 l 10.21834,10.64859 q -8.76626,8.55115 -16.56447,11.88555 -7.79821,3.28063 -17.80144,3.28063 -18.4468,0 -30.22478,-11.67043 -11.72421,-11.7242 -11.72421,-30.00966 0,-11.83177 5.3243,-21.02828 5.37807,-9.19651 15.32751,-14.78971 10.00322,-5.5932 21.51231,-5.5932 9.7881,0 18.82326,4.14112 9.08895,4.14112 15.6502,11.77799 z m 54.64126,-3.17307 -11.13262,9.84188 q -5.8621,-8.17467 -11.93933,-8.17467 -2.95794,0 -4.84026,1.61342 -1.88233,1.55964 -1.88233,3.54953 0,1.98989 1.34452,3.76465 1.82854,2.36636 11.02505,10.16457 8.60493,7.20662 10.43347,9.08895 4.57137,4.62514 6.45369,8.87382 1.93611,4.1949 1.93611,9.19651 0,9.73432 -6.72259,16.08045 -6.7226,6.34613 -17.53253,6.34613 -8.44358,0 -14.73593,-4.14112 -6.23857,-4.14112 -10.70237,-13.01494 l 12.63848,-7.63687 q 5.70076,10.48725 13.1225,10.48725 3.87222,0 6.50747,-2.25879 2.63526,-2.2588 2.63526,-5.21674 0,-2.68904 -1.98989,-5.37807 -1.98988,-2.68904 -8.76626,-8.22846 -12.90738,-10.54103 -16.67204,-16.24179 -3.76465,-5.75454 -3.76465,-11.4553 0,-8.22846 6.23857,-14.09056 6.29235,-5.91589 15.48886,-5.91589 5.91588,0 11.24018,2.74282 5.37807,2.74282 11.61664,10.00322 z m 46.62793,-10.75615 h 15.05861 v 64.75204 h 21.94255 v 14.35946 H 754.6961 Z m 47.38087,0 h 14.95105 v 79.1115 h -14.95105 z m 39.52889,0 h 14.73592 l 18.28546,55.17906 18.55437,-55.17906 h 14.5208 l 13.33763,79.1115 h -14.52081 l -8.49736,-49.96233 -16.83337,49.96233 h -13.28385 l -16.61826,-49.96233 -8.6587,49.96233 h -14.68215 z m 132.94601,10.75615 -11.13261,9.84188 q -5.86211,-8.17467 -11.93933,-8.17467 -2.95794,0 -4.84027,1.61342 -1.88233,1.55964 -1.88233,3.54953 0,1.98989 1.34452,3.76465 1.82855,2.36636 11.02506,10.16457 8.60492,7.20662 10.43347,9.08895 4.57136,4.62514 6.45369,8.87382 1.9361,4.1949 1.9361,9.19651 0,9.73432 -6.72259,16.08045 -6.7226,6.34613 -17.53253,6.34613 -8.44358,0 -14.73593,-4.14112 -6.23857,-4.14112 -10.70237,-13.01494 l 12.63848,-7.63687 q 5.70076,10.48725 13.12251,10.48725 3.87221,0 6.50747,-2.25879 2.63526,-2.2588 2.63526,-5.21674 0,-2.68904 -1.98989,-5.37807 -1.98989,-2.68904 -8.76627,-8.22846 -12.90738,-10.54103 -16.67203,-16.24179 -3.76466,-5.75454 -3.76466,-11.4553 0,-8.22846 6.23857,-14.09056 6.29235,-5.91589 15.48886,-5.91589 5.91589,0 11.24018,2.74282 5.37808,2.74282 11.61664,10.00322 z m 88.09293,0 -11.1326,9.84188 q -5.8621,-8.17467 -11.9394,-8.17467 -2.9579,0 -4.8402,1.61342 -1.8824,1.55964 -1.8824,3.54953 0,1.98989 1.3445,3.76465 1.8286,2.36636 11.0251,10.16457 8.6049,7.20662 10.4335,9.08895 4.5713,4.62514 6.4537,8.87382 1.9361,4.1949 1.9361,9.19651 0,9.73432 -6.7226,16.08045 -6.7226,6.34613 -17.5326,6.34613 -8.4435,0 -14.7359,-4.14112 -6.2385,-4.14112 -10.7024,-13.01494 l 12.6385,-7.63687 q 5.7008,10.48725 13.1225,10.48725 3.8722,0 6.5075,-2.25879 2.6353,-2.2588 2.6353,-5.21674 0,-2.68904 -1.9899,-5.37807 -1.9899,-2.68904 -8.7663,-8.22846 -12.9074,-10.54103 -16.672,-16.24179 -3.7647,-5.75454 -3.7647,-11.4553 0,-8.22846 6.2386,-14.09056 6.2923,-5.91589 15.4888,-5.91589 5.9159,0 11.2402,2.74282 5.3781,2.74282 11.6167,10.00322 z m 10.1645,-10.75615 h 16.188 l 14.736,28.39624 14.6283,-28.39624 h 15.9729 l -23.1257,44.85316 v 34.25834 h -15.1662 v -34.25834 z m 115.4135,10.75615 -11.1326,9.84188 q -5.8621,-8.17467 -11.9394,-8.17467 -2.9579,0 -4.8402,1.61342 -1.8824,1.55964 -1.8824,3.54953 0,1.98989 1.3446,3.76465 1.8285,2.36636 11.025,10.16457 8.6049,7.20662 10.4335,9.08895 4.5713,4.62514 6.4537,8.87382 1.9361,4.1949 1.9361,9.19651 0,9.73432 -6.7226,16.08045 -6.7226,6.34613 -17.5325,6.34613 -8.4436,0 -14.736,-4.14112 -6.2385,-4.14112 -10.7023,-13.01494 l 12.6384,-7.63687 q 5.7008,10.48725 13.1225,10.48725 3.8722,0 6.5075,-2.25879 2.6353,-2.2588 2.6353,-5.21674 0,-2.68904 -1.9899,-5.37807 -1.9899,-2.68904 -8.7663,-8.22846 -12.9074,-10.54103 -16.672,-16.24179 -3.7647,-5.75454 -3.7647,-11.4553 0,-8.22846 6.2386,-14.09056 6.2923,-5.91589 15.4889,-5.91589 5.9158,0 11.2401,2.74282 5.3781,2.74282 11.6167,10.00322 z m 8.0134,-10.75615 h 43.7238 v 14.84349 h -14.4133 v 64.26801 h -15.2737 v -64.26801 h -14.0368 z m 54.1035,0 h 43.1859 v 14.73593 h -28.2349 v 14.30568 h 28.2349 v 14.46703 h -28.2349 v 20.81315 h 28.2349 v 14.78971 h -43.1859 z m 64.8595,0 h 14.736 l 18.2854,55.17906 18.5544,-55.17906 h 14.5208 l 13.3376,79.1115 h -14.5208 l -8.4973,-49.96233 -16.8334,49.96233 h -13.2839 l -16.6182,-49.96233 -8.6587,49.96233 h -14.6822 z"
       id="text1"
       style="font-weight:bold;font-size:110.143px;font-family:'Century Gothic';-inkscape-font-specification:'Century Gothic, Bold';stroke-width:2.976"
       transform="matrix(0.10494161,0,0,0.10494161,-0.0987781,42.116517)"
       aria-label="PROTEOMICS LIMS SYSTEM" />
  </g>
</svg>
