<?xml version="1.0" encoding="UTF-8" standalone="no"?>
<!-- Created with Inkscape (http://www.inkscape.org/) -->

<svg
   width="150mm"
   height="65mm"
   viewBox="0 0 150 65"
   version="1.1"
   id="svg1"
   inkscape:version="1.4-beta (62f545ba5e, 2024-04-22)"
   sodipodi:docname="pims_logo_path_notext.svg"
   xmlns:inkscape="http://www.inkscape.org/namespaces/inkscape"
   xmlns:sodipodi="http://sodipodi.sourceforge.net/DTD/sodipodi-0.dtd"
   xmlns="http://www.w3.org/2000/svg"
   xmlns:svg="http://www.w3.org/2000/svg">
  <sodipodi:namedview
     id="namedview1"
     pagecolor="#ffffff"
     bordercolor="#000000"
     borderopacity="0.25"
     inkscape:showpageshadow="2"
     inkscape:pageopacity="0.0"
     inkscape:pagecheckerboard="0"
     inkscape:deskcolor="#d1d1d1"
     inkscape:document-units="mm"
     inkscape:zoom="0.81882477"
     inkscape:cx="196.01263"
     inkscape:cy="172.80865"
     inkscape:window-width="1920"
     inkscape:window-height="1129"
     inkscape:window-x="-8"
     inkscape:window-y="-8"
     inkscape:window-maximized="1"
     inkscape:current-layer="layer1" />
  <defs
     id="defs1">
    <inkscape:path-effect
       effect="spiro"
       id="path-effect25"
       is_visible="true"
       lpeversion="1" />
    <inkscape:path-effect
       effect="spiro"
       id="path-effect23"
       is_visible="true"
       lpeversion="1" />
    <inkscape:path-effect
       effect="spiro"
       id="path-effect21"
       is_visible="true"
       lpeversion="1" />
    <inkscape:path-effect
       effect="spiro"
       id="path-effect19"
       is_visible="true"
       lpeversion="1" />
    <inkscape:path-effect
       effect="spiro"
       id="path-effect15"
       is_visible="true"
       lpeversion="1" />
    <inkscape:path-effect
       effect="spiro"
       id="path-effect12"
       is_visible="true"
       lpeversion="1" />
    <inkscape:path-effect
       effect="spiro"
       id="path-effect9"
       is_visible="true"
       lpeversion="1" />
    <inkscape:path-effect
       effect="spiro"
       id="path-effect5"
       is_visible="true"
       lpeversion="1" />
    <inkscape:path-effect
       effect="spiro"
       id="path-effect18"
       is_visible="true"
       lpeversion="1" />
    <inkscape:path-effect
       effect="spiro"
       id="path-effect16"
       is_visible="true"
       lpeversion="1" />
    <inkscape:path-effect
       effect="spiro"
       id="path-effect14"
       is_visible="true"
       lpeversion="1" />
    <inkscape:path-effect
       effect="spiro"
       id="path-effect10"
       is_visible="true"
       lpeversion="1" />
    <inkscape:path-effect
       effect="spiro"
       id="path-effect8"
       is_visible="true"
       lpeversion="1" />
    <inkscape:path-effect
       effect="spiro"
       id="path-effect6"
       is_visible="true"
       lpeversion="1" />
    <inkscape:path-effect
       effect="spiro"
       id="path-effect4"
       is_visible="true"
       lpeversion="1" />
    <inkscape:path-effect
       effect="spiro"
       id="path-effect2"
       is_visible="true"
       lpeversion="1" />
    <inkscape:path-effect
       effect="spiro"
       id="path-effect1"
       is_visible="true"
       lpeversion="1" />
  </defs>
  <g
     inkscape:label="Layer 1"
     inkscape:groupmode="layer"
     id="layer1">
    <g
       id="g1"
       transform="matrix(1.0450419,0,0,1.0450419,-3.3781419,-1.0863274)">
      <path
         style="fill:none;stroke:#000000;stroke-width:1.38764;stroke-dasharray:none;stroke-opacity:1"
         d="M 63.023516,113.95191 V 133.1019"
         id="path23"
         inkscape:path-effect="#path-effect25"
         inkscape:original-d="M 63.023516,113.95191 V 133.1019"
         transform="matrix(1.015925,0,0,0.31693826,64.320548,16.877453)"
         sodipodi:nodetypes="cc" />
      <path
         style="fill:none;stroke:#000000;stroke-width:1.38764;stroke-dasharray:none;stroke-opacity:1"
         d="M 63.023516,65.076669 V 133.1019"
         id="path21"
         inkscape:path-effect="#path-effect23"
         inkscape:original-d="M 63.023516,65.076669 V 133.1019"
         transform="matrix(1.015925,0,0,0.31693826,51.395519,16.877453)"
         sodipodi:nodetypes="cc" />
      <path
         style="fill:none;stroke:#000000;stroke-width:1.38764;stroke-dasharray:none;stroke-opacity:1"
         d="M 63.023516,100.75996 V 133.1019"
         id="path19"
         inkscape:path-effect="#path-effect21"
         inkscape:original-d="M 63.023516,100.75996 V 133.1019"
         transform="matrix(1.015925,0,0,0.31693826,40.086119,16.877453)"
         sodipodi:nodetypes="cc" />
      <path
         style="fill:none;stroke:#000000;stroke-width:1.38764;stroke-dasharray:none;stroke-opacity:1"
         d="M 63.023516,59.214414 V 133.1019"
         id="path15"
         inkscape:path-effect="#path-effect19"
         inkscape:original-d="M 63.023516,59.214414 V 133.1019"
         transform="matrix(1.015925,0,0,0.31693826,12.216526,16.877453)"
         sodipodi:nodetypes="cc" />
      <path
         style="fill:none;stroke:#000000;stroke-width:1.38764;stroke-dasharray:none;stroke-opacity:1"
         d="M 63.023516,19.564291 V 133.1019"
         id="path12"
         inkscape:path-effect="#path-effect15"
         inkscape:original-d="M 63.023516,19.564291 V 133.1019"
         transform="matrix(1.015925,0,0,0.31693826,-19.771288,16.877453)"
         sodipodi:nodetypes="cc" />
      <path
         style="font-weight:bold;font-size:44.373px;font-family:'Century Gothic';-inkscape-font-specification:'Century Gothic, Bold';fill:#800080;stroke-width:10.3964"
         d="m 14.781644,6.7393317 h 6.434952 q 5.221627,0 7.518277,0.9749927 2.318316,0.9533262 3.639973,3.1199766 1.343323,2.144984 1.343323,5.156628 0,3.336642 -1.754987,5.546625 -1.73332,2.209984 -4.723298,3.076644 -1.754987,0.498329 -6.391619,0.498329 V 38.61076 h -6.066621 z m 6.066621,12.4582403 h 1.928319 q 2.274983,0 3.16331,-0.324998 0.888326,-0.324997 1.386656,-1.061659 0.519996,-0.758327 0.519996,-1.819986 0,-1.841653 -1.429989,-2.686646 -1.039992,-0.628329 -3.856638,-0.628329 h -1.711654 z"
         id="text10"
         transform="translate(-0.36954165,3.1430586)"
         aria-label="P" />
      <path
         style="font-weight:bold;font-size:44.373px;font-family:'Century Gothic';-inkscape-font-specification:'Century Gothic, Bold';fill:#666666;stroke-width:10.3964"
         d="m 47.400048,6.7393317 h 6.023288 V 38.61076 h -6.023288 z"
         id="text11"
         transform="translate(-0.36954165,3.1430586)"
         aria-label="I" />
      <path
         style="font-weight:bold;font-size:44.373px;font-family:'Century Gothic';-inkscape-font-specification:'Century Gothic, Bold';fill:#666666;stroke-width:10.3964"
         d="M 72.608508,6.7393317 H 78.54513 L 85.911742,28.969165 93.386686,6.7393317 h 5.849956 L 104.60993,38.61076 H 98.759979 L 95.336671,18.482577 88.555055,38.61076 H 83.203429 L 76.508479,18.482577 73.020171,38.61076 h -5.914955 z"
         id="text12"
         transform="translate(-0.36954165,3.1430586)"
         aria-label="M" />
      <path
         style="font-weight:bold;font-size:44.373px;font-family:'Century Gothic';-inkscape-font-specification:'Century Gothic, Bold';fill:#000080;stroke-width:10.3964"
         d="m 137.74835,11.874303 -4.48497,3.96497 q -2.36164,-3.293309 -4.80996,-3.293309 -1.19166,0 -1.94998,0.649995 -0.75833,0.628329 -0.75833,1.42999 0,0.80166 0.54166,1.516655 0.73666,0.953326 4.44163,4.094969 3.46664,2.903312 4.20331,3.66164 1.84165,1.863319 2.59998,3.574973 0.77999,1.689987 0.77999,3.704972 0,3.921637 -2.70831,6.478285 -2.70832,2.556647 -7.06328,2.556647 -3.40164,0 -5.93663,-1.66832 -2.51331,-1.668321 -4.31163,-5.243294 l 5.09163,-3.076644 q 2.29665,4.224968 5.28663,4.224968 1.55998,0 2.62164,-0.909993 1.06166,-0.909993 1.06166,-2.101651 0,-1.083325 -0.80166,-2.16665 -0.80166,-1.083325 -3.53164,-3.314975 -5.19996,-4.246635 -6.71662,-6.543285 -1.51665,-2.318316 -1.51665,-4.614965 0,-3.314975 2.51331,-5.6766244 2.53498,-2.3833155 6.23996,-2.3833155 2.38331,0 4.5283,1.1049917 2.16665,1.1049918 4.67996,4.0299702 z"
         id="text13"
         transform="translate(-0.36954165,3.1430586)"
         aria-label="S" />
      <rect
         style="fill:none;stroke:#000000;stroke-width:2;stroke-dasharray:none;stroke-opacity:1"
         id="rect1"
         width="141.47786"
         height="54.499523"
         x="4.6306119"
         y="9.7413912"
         transform="translate(-0.36954165,-4.7944418)" />
      <path
         style="fill:none;stroke:#000000;stroke-width:1.38764;stroke-dasharray:none;stroke-opacity:1"
         d="M 63.023516,105.35274 V 133.1019"
         id="path14"
         inkscape:path-effect="#path-effect16"
         inkscape:original-d="m 63.023516,105.35274 c 0,8.93617 0,18.34267 0,27.74916"
         transform="matrix(1.015925,0,0,0.31693826,-26.168851,16.877453)" />
      <path
         style="fill:none;stroke:#000000;stroke-width:1.38764;stroke-dasharray:none;stroke-opacity:1"
         d="M 63.023516,28.215227 V 133.1019"
         id="path9"
         inkscape:path-effect="#path-effect12"
         inkscape:original-d="M 63.023516,28.215227 V 133.1019"
         transform="matrix(1.015925,0,0,0.31693826,-53.586977,16.877453)"
         sodipodi:nodetypes="cc" />
    </g>
  </g>
</svg>
